<svg width="29" height="42" viewBox="0 0 29 42" fill="none" xmlns="http://www.w3.org/2000/svg">
<path d="M28.8408 27.2559L14.4531 41.6436L0.0654297 27.2559L3.37109 23.9482L14.4531 35.0303L25.5342 23.9482L28.8408 27.2559ZM22.374 20.7881L14.3877 28.7764L6.46582 20.8545L14.4531 12.8672L22.374 20.7881ZM6.46582 20.8545L3.37109 23.9482L0.0654297 20.6426L3.15918 17.5479L6.46582 20.8545ZM28.8408 20.6426L25.5342 23.9482L22.374 20.7881L25.6807 17.4824L28.8408 20.6426ZM28.7764 14.3877L25.6807 17.4824L14.4531 6.25391L3.15918 17.5479L0 14.3877L14.3877 0L28.7764 14.3877Z" fill="#313131"/>
</svg>
